<svg xmlns="http://www.w3.org/2000/svg" id="svg_shopping" viewBox="0 0 34 32" width="24" height="24">
        <title>Shopping Cart Detailed</title>
     <!-- 
        <path fill="white" d="M15.4 15.2V3c0-.3.25-.56.56-.56.3 0 .56.25.56.56v12.2c0 .32-.25.57-.56.57-.3 0-.56-.25-.56-.56zM10.26 15.2V3c0-.3.25-.56.56-.56.3 0 .56.25.56.56v12.2c0 .32-.25.57-.56.57-.3 0-.56-.25-.56-.56z"/>
        <path fill="white" d="M5.28 6.58c-.3 0-.55-.25-.55-.56 0-.3.25-.55.55-.55h15.9c.3 0 .56.25.56.55 0 .3-.25.56-.56.56H5.28zM20.23 9.74H6.53c-.3 0-.56-.25-.56-.55 0-.38.25-.6.56-.6h13.7c.3 0 .55.22.55.53 0 .3-.24.54-.55.54v.07zM19.3 12.8H7.47c-.3 0-.56-.26-.56-.57 0-.3.3-.55.6-.55h11.8c.3 0 .6.25.6.55 0 .3-.26.56-.56.56h-.04z"/>
        <path fill="white" d="M8.45 15.76c-.24 0-.44-.14-.52-.35L2.77 1.5H.57C.24 1.5 0 1.23 0 .92 0 .63.25.36.56.36h2.6c.23 0 .44.16.52.38l5.15 13.92H18L21.36 3.5H7.06c-.3 0-.55-.24-.55-.54 0-.3.3-.56.6-.56h15c.2 0 .37.08.48.22.1.14.14.32.1.5l-3.7 12.24c-.1.25-.3.4-.57.4H8.46zM10 19.66c-.8 0-1.48-.65-1.48-1.43 0-.77.63-1.4 1.4-1.4.8 0 1.43.63 1.43 1.4 0 .78-.64 1.42-1.4 1.42M15.8 19.66c-.8 0-1.4-.65-1.4-1.43 0-.77.6-1.4 1.4-1.4.8 0 1.4.63 1.4 1.4 0 .78-.63 1.42-1.4 1.42"/>
-->

    <path fill="white" d="M23.77 29.6c0 1.33-1.07 2.4-2.4 2.4S19 30.93 19 29.6c0-1.3 1.06-2.38 2.38-2.38s2.4 1.07 2.4 2.4zm-9.03 0c0 1.33-1.07 2.4-2.4 2.4s-2.38-1.07-2.38-2.4c0-1.3 1.07-2.38 2.4-2.38s2.38 1.07 2.38 2.4zm12.88-4.9H10.1c-.67 0-1.34-.53-1.47-1.2L3.85 2.92h-2.4C.65 2.92 0 2.26 0 1.46S.66 0 1.46 0h3.58C5.7 0 6.37.53 6.5 1.2l4.8 20.7h15.26l3.98-15.8c.26-.8 1.06-1.2 1.72-1.06.93.27 1.33 1.07 1.2 1.86l-4.38 16.87c-.27.53-.8.93-1.46.93z"/>

    </svg>