<svg xmlns="http://www.w3.org/2000/svg" viewBox="0 0 24 24" width="24" height="24">
  <!--
  <path fill="white" d="M16.9,15.5c2.4-3.2,2.2-7.7-0.7-10.6c-3.1-3.1-8.1-3.1-11.3,0c-3.1,3.2-3.1,8.3,0,11.4
    c2.9,2.9,7.5,3.1,10.6,0.6c0,0.1,0,0.1,0,0.1l4.2,4.2c0.5,0.4,1.1,0.4,1.5,0c0.4-0.4,0.4-1,0-1.4L16.9,15.5
    C16.9,15.5,16.9,15.5,16.9,15.5L16.9,15.5z M14.8,6.3c2.3,2.3,2.3,6.1,0,8.5c-2.3,2.3-6.1,2.3-8.5,0C4,12.5,4,8.7,6.3,6.3
    C8.7,4,12.5,4,14.8,6.3z"/>
-->

    <path fill="white" d="M22 9.8C22 14 18.7 17.4 14.7 17.4 10.7 17.4 7.4 14 7.4 9.8 7.4 5.7 10.7 2.3 14.7 2.3 18.7 2.3 22 5.7 22 9.8M23.5 9.8C23.5 4.8 19.6 0.7 14.7 0.7 9.9 0.7 5.9 4.8 5.9 9.8 5.9 14.9 9.9 19 14.7 19 19.6 19 23.5 14.9 23.5 9.8M2.4 24.4L8 18.6C8.5 18.1 8.5 17.4 8 16.9 7.6 16.5 6.9 16.5 6.4 16.9L0.8 22.7C0.4 23.1 0.4 23.9 0.8 24.3 1 24.6 1.3 24.7 1.6 24.7 1.9 24.7 2.2 24.6 2.4 24.4M11.9 14.7C11.8 14.7 11.6 14.7 11.5 14.6 9.9 13.5 8.9 11.6 8.9 9.6 8.9 7.5 9.9 5.7 11.5 4.5 11.8 4.3 12.3 4.4 12.5 4.7 12.8 5.1 12.7 5.6 12.3 5.8 11.1 6.7 10.4 8.1 10.4 9.6 10.4 11.1 11.1 12.5 12.3 13.3 12.7 13.5 12.8 14 12.5 14.4 12.4 14.6 12.1 14.7 11.9 14.7"/>
</svg>
